<?xml version="1.0" encoding="UTF-8"?>
<svg width="507px" height="308px" viewBox="0 0 507 308" version="1.1" xmlns="http://www.w3.org/2000/svg" xmlns:xlink="http://www.w3.org/1999/xlink">
    <!-- Generator: Sketch 45.2 (43514) - http://www.bohemiancoding.com/sketch -->
    <title>gulp</title>
    <desc>Created with Sketch.</desc>
    <defs></defs>
    <g id="Page-1" stroke="none" stroke-width="1" fill="none" fill-rule="evenodd">
        <g id="Artboard" transform="translate(-5694.000000, -5048.000000)" stroke="#000000" stroke-width="2" fill="#000000" fill-rule="nonzero">
            <g id="gulp" transform="translate(5695.000000, 5048.000000)">
                <path d="M135.06,158.24 C134.72,158.76 134.06,160.4 133.16,163.14 C132.24,165.9 131.12,169.34 129.8,173.54 C128.48,177.68 127.04,182.34 125.52,187.48 L120.78,203.24 C118.98,208.6 117.58,213.84 115.98,219 L111.98,232.96 L108.98,243.4 L107.58,248.4 C106.98,250.06 106.38,251.9 105.38,253.94 C104.38,255.94 103.18,257.88 101.98,259.7 C100.58,261.5 99.18,263.04 97.58,264.24 C95.98,265.44 94.38,266.04 92.58,266.04 C89.78,266.04 87.78,265.08 86.38,263.24 C84.98,261.34 84.38,257.92 84.38,252.92 L84.38,248.4 C84.38,246.74 85.18,243.6 86.38,239.04 C87.58,234.44 88.98,229.28 90.78,223.52 C92.38,217.72 94.38,211.76 96.18,205.58 L101.58,188.78 C96.78,193.98 91.78,199.18 86.38,204.18 C80.98,209.38 75.38,213.98 69.78,217.98 C63.98,221.98 58.18,225.38 52.38,227.98 C46.58,230.58 40.98,231.78 35.58,231.78 C29.38,231.78 24.18,230.38 19.78,227.58 C15.38,224.78 11.58,221.38 8.78,216.98 C5.98,212.58 3.78,207.58 2.38,202.18 C1.6,197 0.8,191.4 0.8,186 L0.8,184 C0.8,183.4 0.88,182.74 1,182.12 C1.48,172.12 2.9,161.92 5.2,151.44 C7.6,140.88 10.6,130.44 14.4,120.04 C18.2,109.64 22.6,99.44 27.6,89.52 C32.8,80 38.2,70.6 44,61.8 C49.8,53 56.04,44.8 62.6,37.4 C69.2,29.96 75.94,23.56 82.88,18.2 C89.8,12.8 96.8,8.6 103.88,5.6 C110.88,2.6 117.88,1 124.8,1 C132.8,1 140.52,3.2 148,7.54 C155.4,12 162.4,19 168.96,28.8 C170.44,31 171.36,33.2 171.76,35.44 C172.16,37.64 172.36,39.78 172.36,41.74 C172.36,46.42 171.26,50.14 169.02,52.82 C166.82,55.62 164.22,56.82 161.02,56.82 C158.22,56.82 155.62,55.42 153.22,52.42 C150.82,49.42 148.02,45.22 145.22,39.82 C142.42,34.82 139.42,31.22 136.02,29.02 C132.62,26.82 129.02,25.82 125.02,25.82 C118.82,25.82 112.42,28.42 105.42,33.62 C98.42,38.82 91.62,45.42 84.82,53.82 C78.02,62.22 71.42,71.82 65.22,82.62 C59.02,93.42 53.42,104.42 48.62,115.82 C43.82,127.22 40.02,138.22 37.22,149.22 C34.42,160.22 33.02,170.02 33.02,178.82 C33.02,181.82 33.22,184.82 33.62,187.82 C34.02,191.02 34.82,193.62 35.82,196.22 C36.82,198.82 38.42,200.82 40.42,202.42 C42.42,204.02 44.82,204.82 47.62,204.82 C50.82,204.82 54.62,203.82 58.62,201.62 C62.82,199.42 67.02,196.62 71.42,193.02 C75.82,189.42 80.42,185.42 84.82,181.02 C89.22,176.62 93.62,172.02 97.42,167.42 C101.22,162.82 104.82,158.42 107.62,154.22 C110.62,150.02 112.82,146.42 114.42,143.22 L126,106 C127.48,102.06 129.4,99.24 131.86,97.6 C134.26,95.92 136.72,95.08 139.26,95.08 C140.46,95.08 141.72,95.28 142.96,95.68 C144.16,96.08 145.32,96.72 146.3,97.6 C147.3,98.4 148.04,99.6 148.62,101 C149.22,102.4 149.62,104 149.62,106 C149.62,111 149.22,115.72 148.42,120.08 C147.62,124.48 146.42,128.68 145.02,132.88 C143.82,136.98 142.22,141.16 140.62,145.38 C139.02,149.58 137.42,153.98 135.82,158.58 L135.06,158.24 Z M301.12,188.8 C297.26,194 292.76,199.08 287.64,204 C282.5,208.96 277.2,213.36 271.76,217.2 C266.32,221.04 260.96,224.14 255.7,226.48 C250.42,228.82 245.7,229.98 241.5,229.98 C237.3,229.98 233.84,228.58 231.2,225.78 C228.56,222.98 227.24,218.18 227.24,211.38 C227.24,206.58 227.96,200.98 229.36,194.58 C227.08,198.58 224.22,202.78 220.8,206.78 C217.4,210.98 213.46,214.78 209.08,218.18 C204.68,221.58 199.76,224.38 194.32,226.38 C188.88,228.38 182.96,229.58 176.52,229.58 C173.66,229.58 170.86,229.18 168.18,228.38 C165.38,227.58 162.98,226.38 160.98,224.58 C158.98,222.78 157.38,220.38 155.98,217.38 C154.78,214.38 154.18,210.58 154.18,206.18 L154.58,201.38 C154.98,198.38 155.98,193.38 157.98,186.78 C159.98,180.18 162.78,171.58 166.78,160.98 C170.78,150.38 176.18,137.78 183.38,122.78 C185.18,118.78 187.18,115.98 189.78,114.18 C192.18,112.38 194.78,111.58 197.58,111.58 C198.78,111.58 199.98,111.78 201.38,112.18 C202.58,112.38 203.78,112.98 204.98,113.78 C206.18,114.58 206.98,115.58 207.78,116.78 C208.38,117.78 208.78,119.18 208.78,120.78 C208.78,121.78 208.58,122.78 208.38,123.58 C207.78,125.38 206.98,127.58 205.58,130.38 L200.38,140.26 C198.38,143.86 196.38,147.86 194.18,152.1 C191.98,156.36 189.98,160.9 188.18,165.34 C186.38,169.94 184.78,174.64 183.38,179.34 C181.98,184.14 181.18,188.74 180.98,193.14 C180.98,195.14 181.38,196.74 182.18,198.34 C182.98,199.94 184.58,200.74 186.58,200.74 C192.18,200.74 197.78,198.94 202.98,195.14 C208.18,191.4 212.98,186.74 217.38,181.18 C221.78,175.58 225.78,169.58 229.38,163.18 C232.98,156.78 235.78,150.98 238.18,145.7 C239.78,142.16 241.38,138.36 242.58,134.3 C243.78,130.3 245.18,126.5 246.78,123.1 C248.18,119.7 249.98,116.78 251.98,114.5 C253.78,112.22 256.18,111.1 259.18,111.1 C262.18,111.1 264.78,112.3 266.58,114.7 C268.38,117.1 269.38,119.9 269.38,123.3 C269.38,125.1 268.78,127.7 267.58,130.9 C266.38,134.1 264.98,137.9 263.18,142.1 L257.38,155.64 C255.18,160.44 253.38,165.24 251.58,170.24 C249.78,175.14 248.18,180.04 246.98,184.72 C245.78,189.52 245.18,193.92 245.18,197.92 C245.18,201.72 247.18,203.52 250.98,203.52 C253.78,203.52 257.18,202.72 261.18,200.72 C265.18,198.92 269.38,196.32 273.78,192.92 C278.18,189.52 282.58,185.52 286.98,180.92 C291.38,176.32 295.38,171.44 298.78,166.12 L300.18,187.32 L301.12,188.8 Z" id="Shape"></path>
                <path d="M305.2,181 C304.24,183.4 303.3,186.2 302.4,189.36 C301.46,192.52 301,195.36 301,197.86 C301,199.42 301.26,200.66 301.8,201.6 C302.32,202.54 303.32,203 304.8,203 C306.66,203 308.96,202.36 311.74,201.06 C314.5,199.76 317.48,198.06 320.68,195.9 C323.88,193.78 327.24,191.34 330.68,188.58 C334.16,185.78 337.62,182.78 341.04,179.98 C344.44,176.98 347.72,173.98 350.84,170.98 C353.96,167.98 356.76,165.18 359.24,162.78 C359.92,161.98 360.74,161.58 361.72,161.18 C362.68,160.78 363.52,160.58 364.22,160.58 C366.02,160.58 367.42,161.18 368.62,162.78 C369.82,164.18 370.42,166.18 370.42,168.58 C370.42,170.78 369.82,173.18 368.62,175.78 C367.42,178.38 365.22,180.98 362.22,183.58 C356.62,189.58 351.02,195.38 345.22,200.98 C339.62,206.38 333.82,211.38 328.22,215.58 C322.62,219.78 317.02,222.98 311.42,225.58 C305.82,227.98 300.42,229.18 295.22,229.18 C291.62,229.18 288.62,228.58 286.22,227.38 C283.82,226.18 282.02,224.58 280.42,222.58 C279.02,220.58 278.02,218.18 277.42,215.58 C276.82,212.78 276.62,209.98 276.62,206.98 C276.62,201.78 277.22,196.58 278.62,191.18 C280.02,185.78 281.42,180.78 283.22,176.38 C286.42,168.18 289.42,160.18 292.62,152.18 L301.42,130.18 L341.2,30 C342.7,26 344.8,23.16 347.5,21.4 C350.22,19.8 352.9,19 355.64,19 C358.44,19 360.84,19.8 363.12,21.6 C365.32,23.32 366.52,26.2 366.52,30.14 C366.52,32 366.12,33.98 365.42,36.06 C364.62,38.06 363.82,40.34 362.62,42.72 C360.42,47.56 357.82,53.52 354.82,60.6 L344.82,83.8 C341.42,92.1 337.82,100.8 334.22,109.8 L323.42,136.2 C319.82,144.76 316.62,152.8 313.62,160.48 L305.82,180.34 L305.2,181 Z" id="Shape"></path>
                <path d="M491.8,152.8 C493.06,151.94 494.2,151.26 495.26,150.74 C496.3,150.22 497.32,149.94 498.26,149.94 C500.2,149.94 501.66,150.82 502.62,152.54 C503.62,154.26 504.22,156.34 504.22,158.86 C504.22,161.56 503.62,164.32 502.42,167.12 C501.22,169.92 499.62,172.28 497.22,174.12 C487.82,182.46 479.42,190.06 472.22,196.92 C464.82,203.78 458.02,209.68 451.42,214.62 C444.82,219.62 438.42,223.42 432.22,226.22 C426.02,229.02 419.42,230.42 412.22,230.42 C405.62,230.42 400.42,229.02 396.82,226.02 C393.22,223.22 391.42,219.22 391.42,214.02 L391.42,212.82 C391.42,212.62 391.62,212.02 391.62,211.62 C392.02,208.62 393.42,205.02 395.82,200.82 C398.22,196.82 401.02,192.62 404.42,188.22 C407.82,183.82 411.42,179.42 415.22,175.02 C419.02,170.62 422.42,166.42 425.82,162.42 C429.02,158.42 431.62,154.82 433.82,151.42 C436.02,148.22 437.02,145.42 437.02,143.42 C437.02,142.22 436.62,141.22 435.78,140.42 C434.84,139.82 433.38,139.42 431.38,139.42 C427.78,139.42 424.18,140.42 420.46,142.22 C416.66,144.02 412.94,146.62 409.26,149.62 C405.66,152.82 402.06,156.22 398.62,160.22 C395.18,164.22 392.02,168.42 388.82,172.62 C385.82,177.02 383.02,181.22 380.42,185.62 C378.02,190.02 375.82,194.02 374.02,197.62 L371.82,202.42 L368.82,209.62 L365.22,217.62 L361.82,225.42 L359.02,232.02 C358.22,234.02 357.62,235.22 357.22,236.02 C356.82,237.02 356.22,238.82 355.22,241.42 L351.62,250.58 L347.42,261.58 L343.42,272.38 L340.02,281.54 C339.02,284.14 338.42,285.9 338.22,286.84 C337.22,289.44 336.22,292.04 335.02,294.44 C333.82,296.84 332.52,298.9 330.98,300.72 C329.46,302.52 327.7,304.02 325.72,305.12 C323.72,306.12 321.52,306.72 319.12,306.72 C315.92,306.72 313.32,305.92 311.32,304.48 C309.32,303.08 308.12,300.08 308.12,295.88 C308.12,293.88 308.32,291.68 308.92,289.48 C309.32,287.28 310.12,285.24 310.92,283.08 C311.52,280.88 312.52,278.88 313.32,276.88 C314.12,274.88 314.92,272.88 315.52,270.96 C320.12,260.56 325.02,250.16 329.92,239.64 C334.82,229.12 339.52,218.84 344.12,208.64 C348.64,198.44 352.82,188.44 356.72,178.44 C360.52,168.64 363.72,159.12 366.32,150.04 L369.12,142.12 C370.32,138.72 371.72,135.32 373.32,132.12 C374.92,128.92 376.72,125.92 378.72,123.52 C380.72,121.12 382.92,119.86 385.12,119.86 C388.72,119.86 391.26,120.66 392.84,122.26 C394.44,124.02 395.24,126.26 395.24,129.46 C395.24,130.06 395.16,131.06 394.98,132.46 C394.78,133.86 394.58,135.26 394.26,136.76 L393.4,140.96 C393.2,142.36 392.8,143.36 392.6,143.96 C395.8,140.44 399.4,136.96 403.16,133.46 C406.96,130 410.96,126.86 414.96,124.06 C418.96,121.26 423.16,118.86 427.36,117.16 C431.56,115.36 435.76,114.46 439.96,114.46 C442.96,114.46 445.76,114.86 448.68,115.66 C451.48,116.5 454.08,117.72 456.28,119.34 C458.62,120.94 460.44,122.94 461.84,125.34 C463.24,127.74 463.94,130.6 463.94,133.82 C463.94,138.08 462.82,142.62 460.74,147.42 C458.54,152.3 455.94,157.22 452.62,162.02 C449.42,166.94 445.88,171.7 442.1,176.32 C438.3,180.92 434.9,185.12 431.5,188.92 L423.1,198.72 C420.9,201.32 419.7,203.12 419.66,204.12 C419.66,205.32 420.06,206.32 420.86,207.12 C421.66,207.92 423.06,208.32 424.86,208.32 C426.42,208.32 428.62,207.42 431.46,205.72 C434.42,203.92 438.46,201.12 443.66,197 C448.86,192.8 455.58,187.4 463.6,180.4 C471.6,173.48 481.6,164.8 493.34,154.26 L491.8,152.8 Z" id="Shape"></path>
            </g>
        </g>
    </g>
</svg>