<svg width="507" height="308" xmlns="http://www.w3.org/2000/svg"><g stroke="#000" stroke-width="2"><path d="M136.06 158.24c-.34.52-1 2.16-1.9 4.9-.92 2.76-2.04 6.2-3.36 10.4-1.32 4.14-2.76 8.8-4.28 13.94l-4.74 15.76c-1.8 5.36-3.2 10.6-4.8 15.76l-4 13.96-3 10.44-1.4 5c-.6 1.66-1.2 3.5-2.2 5.54-1 2-2.2 3.94-3.4 5.76-1.4 1.8-2.8 3.34-4.4 4.54-1.6 1.2-3.2 1.8-5 1.8-2.8 0-4.8-.96-6.2-2.8-1.4-1.9-2-5.32-2-10.32v-4.52c0-1.66.8-4.8 2-9.36 1.2-4.6 2.6-9.76 4.4-15.52 1.6-5.8 3.6-11.76 5.4-17.94l5.4-16.8c-4.8 5.2-9.8 10.4-15.2 15.4-5.4 5.2-11 9.8-16.6 13.8-5.8 4-11.6 7.4-17.4 10-5.8 2.6-11.4 3.8-16.8 3.8-6.2 0-11.4-1.4-15.8-4.2-4.4-2.8-8.2-6.2-11-10.6-2.8-4.4-5-9.4-6.4-14.8C2.6 197 1.8 191.4 1.8 186v-2c0-.6.08-1.26.2-1.88.48-10 1.9-20.2 4.2-30.68 2.4-10.56 5.4-21 9.2-31.4 3.8-10.4 8.2-20.6 13.2-30.52C33.8 80 39.2 70.6 45 61.8c5.8-8.8 12.04-17 18.6-24.4 6.6-7.44 13.34-13.84 20.28-19.2 6.92-5.4 13.92-9.6 21-12.6 7-3 14-4.6 20.92-4.6 8 0 15.72 2.2 23.2 6.54C156.4 12 163.4 19 169.96 28.8c1.48 2.2 2.4 4.4 2.8 6.64.4 2.2.6 4.34.6 6.3 0 4.68-1.1 8.4-3.34 11.08-2.2 2.8-4.8 4-8 4-2.8 0-5.4-1.4-7.8-4.4-2.4-3-5.2-7.2-8-12.6-2.8-5-5.8-8.6-9.2-10.8-3.4-2.2-7-3.2-11-3.2-6.2 0-12.6 2.6-19.6 7.8-7 5.2-13.8 11.8-20.6 20.2-6.8 8.4-13.4 18-19.6 28.8-6.2 10.8-11.8 21.8-16.6 33.2-4.8 11.4-8.6 22.4-11.4 33.4-2.8 11-4.2 20.8-4.2 29.6 0 3 .2 6 .6 9 .4 3.2 1.2 5.8 2.2 8.4 1 2.6 2.6 4.6 4.6 6.2 2 1.6 4.4 2.4 7.2 2.4 3.2 0 7-1 11-3.2 4.2-2.2 8.4-5 12.8-8.6 4.4-3.6 9-7.6 13.4-12s8.8-9 12.6-13.6c3.8-4.6 7.4-9 10.2-13.2 3-4.2 5.2-7.8 6.8-11L127 106c1.48-3.94 3.4-6.76 5.86-8.4 2.4-1.68 4.86-2.52 7.4-2.52 1.2 0 2.46.2 3.7.6 1.2.4 2.36 1.04 3.34 1.92 1 .8 1.74 2 2.32 3.4.6 1.4 1 3 1 5 0 5-.4 9.72-1.2 14.08-.8 4.4-2 8.6-3.4 12.8-1.2 4.1-2.8 8.28-4.4 12.5-1.6 4.2-3.2 8.6-4.8 13.2l-.76-.34zm166.06 30.56c-3.86 5.2-8.36 10.28-13.48 15.2-5.14 4.96-10.44 9.36-15.88 13.2-5.44 3.84-10.8 6.94-16.06 9.28-5.28 2.34-10 3.5-14.2 3.5-4.2 0-7.66-1.4-10.3-4.2-2.64-2.8-3.96-7.6-3.96-14.4 0-4.8.72-10.4 2.12-16.8-2.28 4-5.14 8.2-8.56 12.2-3.4 4.2-7.34 8-11.72 11.4-4.4 3.4-9.32 6.2-14.76 8.2-5.44 2-11.36 3.2-17.8 3.2-2.86 0-5.66-.4-8.34-1.2-2.8-.8-5.2-2-7.2-3.8-2-1.8-3.6-4.2-5-7.2-1.2-3-1.8-6.8-1.8-11.2l.4-4.8c.4-3 1.4-8 3.4-14.6s4.8-15.2 8.8-25.8c4-10.6 9.4-23.2 16.6-38.2 1.8-4 3.8-6.8 6.4-8.6 2.4-1.8 5-2.6 7.8-2.6 1.2 0 2.4.2 3.8.6 1.2.2 2.4.8 3.6 1.6 1.2.8 2 1.8 2.8 3 .6 1 1 2.4 1 4 0 1-.2 2-.4 2.8-.6 1.8-1.4 4-2.8 6.8l-5.2 9.88c-2 3.6-4 7.6-6.2 11.84-2.2 4.26-4.2 8.8-6 13.24-1.8 4.6-3.4 9.3-4.8 14-1.4 4.8-2.2 9.4-2.4 13.8 0 2 .4 3.6 1.2 5.2.8 1.6 2.4 2.4 4.4 2.4 5.6 0 11.2-1.8 16.4-5.6 5.2-3.74 10-8.4 14.4-13.96 4.4-5.6 8.4-11.6 12-18 3.6-6.4 6.4-12.2 8.8-17.48 1.6-3.54 3.2-7.34 4.4-11.4 1.2-4 2.6-7.8 4.2-11.2 1.4-3.4 3.2-6.32 5.2-8.6 1.8-2.28 4.2-3.4 7.2-3.4s5.6 1.2 7.4 3.6c1.8 2.4 2.8 5.2 2.8 8.6 0 1.8-.6 4.4-1.8 7.6-1.2 3.2-2.6 7-4.4 11.2l-5.8 13.54c-2.2 4.8-4 9.6-5.8 14.6-1.8 4.9-3.4 9.8-4.6 14.48-1.2 4.8-1.8 9.2-1.8 13.2 0 3.8 2 5.6 5.8 5.6 2.8 0 6.2-.8 10.2-2.8 4-1.8 8.2-4.4 12.6-7.8 4.4-3.4 8.8-7.4 13.2-12 4.4-4.6 8.4-9.48 11.8-14.8l1.4 21.2.94 1.48z"/><path d="M306.2 181c-.96 2.4-1.9 5.2-2.8 8.36-.94 3.16-1.4 6-1.4 8.5 0 1.56.26 2.8.8 3.74.52.94 1.52 1.4 3 1.4 1.86 0 4.16-.64 6.94-1.94 2.76-1.3 5.74-3 8.94-5.16 3.2-2.12 6.56-4.56 10-7.32 3.48-2.8 6.94-5.8 10.36-8.6 3.4-3 6.68-6 9.8-9 3.12-3 5.92-5.8 8.4-8.2.68-.8 1.5-1.2 2.48-1.6.96-.4 1.8-.6 2.5-.6 1.8 0 3.2.6 4.4 2.2 1.2 1.4 1.8 3.4 1.8 5.8 0 2.2-.6 4.6-1.8 7.2-1.2 2.6-3.4 5.2-6.4 7.8-5.6 6-11.2 11.8-17 17.4-5.6 5.4-11.4 10.4-17 14.6-5.6 4.2-11.2 7.4-16.8 10-5.6 2.4-11 3.6-16.2 3.6-3.6 0-6.6-.6-9-1.8-2.4-1.2-4.2-2.8-5.8-4.8-1.4-2-2.4-4.4-3-7-.6-2.8-.8-5.6-.8-8.6 0-5.2.6-10.4 2-15.8s2.8-10.4 4.6-14.8c3.2-8.2 6.2-16.2 9.4-24.2l8.8-22L342.2 30c1.5-4 3.6-6.84 6.3-8.6 2.72-1.6 5.4-2.4 8.14-2.4 2.8 0 5.2.8 7.48 2.6 2.2 1.72 3.4 4.6 3.4 8.54 0 1.86-.4 3.84-1.1 5.92-.8 2-1.6 4.28-2.8 6.66-2.2 4.84-4.8 10.8-7.8 17.88l-10 23.2c-3.4 8.3-7 17-10.6 26l-10.8 26.4c-3.6 8.56-6.8 16.6-9.8 24.28l-7.8 19.86-.62.66z"/><path d="M492.8 152.8c1.26-.86 2.4-1.54 3.46-2.06 1.04-.52 2.06-.8 3-.8 1.94 0 3.4.88 4.36 2.6 1 1.72 1.6 3.8 1.6 6.32 0 2.7-.6 5.46-1.8 8.26-1.2 2.8-2.8 5.16-5.2 7-9.4 8.34-17.8 15.94-25 22.8-7.4 6.86-14.2 12.76-20.8 17.7-6.6 5-13 8.8-19.2 11.6-6.2 2.8-12.8 4.2-20 4.2-6.6 0-11.8-1.4-15.4-4.4-3.6-2.8-5.4-6.8-5.4-12v-1.2c0-.2.2-.8.2-1.2.4-3 1.8-6.6 4.2-10.8 2.4-4 5.2-8.2 8.6-12.6 3.4-4.4 7-8.8 10.8-13.2 3.8-4.4 7.2-8.6 10.6-12.6 3.2-4 5.8-7.6 8-11 2.2-3.2 3.2-6 3.2-8 0-1.2-.4-2.2-1.24-3-.94-.6-2.4-1-4.4-1-3.6 0-7.2 1-10.92 2.8-3.8 1.8-7.52 4.4-11.2 7.4-3.6 3.2-7.2 6.6-10.64 10.6-3.44 4-6.6 8.2-9.8 12.4-3 4.4-5.8 8.6-8.4 13-2.4 4.4-4.6 8.4-6.4 12l-2.2 4.8-3 7.2-3.6 8-3.4 7.8-2.8 6.6c-.8 2-1.4 3.2-1.8 4-.4 1-1 2.8-2 5.4l-3.6 9.16-4.2 11-4 10.8-3.4 9.16c-1 2.6-1.6 4.36-1.8 5.3-1 2.6-2 5.2-3.2 7.6-1.2 2.4-2.5 4.46-4.04 6.28-1.52 1.8-3.28 3.3-5.26 4.4-2 1-4.2 1.6-6.6 1.6-3.2 0-5.8-.8-7.8-2.24-2-1.4-3.2-4.4-3.2-8.6 0-2 .2-4.2.8-6.4.4-2.2 1.2-4.24 2-6.4.6-2.2 1.6-4.2 2.4-6.2.8-2 1.6-4 2.2-5.92 4.6-10.4 9.5-20.8 14.4-31.32s9.6-20.8 14.2-31c4.52-10.2 8.7-20.2 12.6-30.2 3.8-9.8 7-19.32 9.6-28.4l2.8-7.92c1.2-3.4 2.6-6.8 4.2-10s3.4-6.2 5.4-8.6c2-2.4 4.2-3.66 6.4-3.66 3.6 0 6.14.8 7.72 2.4 1.6 1.76 2.4 4 2.4 7.2 0 .6-.08 1.6-.26 3-.2 1.4-.4 2.8-.72 4.3l-.86 4.2c-.2 1.4-.6 2.4-.8 3 3.2-3.52 6.8-7 10.56-10.5 3.8-3.46 7.8-6.6 11.8-9.4 4-2.8 8.2-5.2 12.4-6.9 4.2-1.8 8.4-2.7 12.6-2.7 3 0 5.8.4 8.72 1.2 2.8.84 5.4 2.06 7.6 3.68 2.34 1.6 4.16 3.6 5.56 6 1.4 2.4 2.1 5.26 2.1 8.48 0 4.26-1.12 8.8-3.2 13.6-2.2 4.88-4.8 9.8-8.12 14.6-3.2 4.92-6.74 9.68-10.52 14.3-3.8 4.6-7.2 8.8-10.6 12.6l-8.4 9.8c-2.2 2.6-3.4 4.4-3.44 5.4 0 1.2.4 2.2 1.2 3 .8.8 2.2 1.2 4 1.2 1.56 0 3.76-.9 6.6-2.6 2.96-1.8 7-4.6 12.2-8.72 5.2-4.2 11.92-9.6 19.94-16.6 8-6.92 18-15.6 29.74-26.14l-1.54-1.46z"/></g></svg>